<svg xmlns="http://www.w3.org/2000/svg" width="33" height="32" viewBox="0 0 33 32">
    <path fill="#1ED760" fill-rule="evenodd" d="M16 0c8.88 0 16 7.2 16 16s-7.2 16-16 16S0 24.8 0 16 7.2 0 16 0zm6.96 21.76C18.8 19.2 13.52 18.64 7.44 20c-.48.16-.88.64-.72 1.2.16.48.64.88 1.2.72 5.6-1.28 10.32-.8 14.08 1.52.48.32 1.04.16 1.36-.32.24-.48.16-1.12-.4-1.36zm2-4.64c-4.96-3.04-12.16-3.92-18-2.16-.64.16-.96.88-.8 1.52.16.64.88.96 1.52.8 5.04-1.6 11.6-.8 15.92 1.84.56.4 1.28.16 1.68-.4.4-.56.16-1.36-.32-1.6zm2-5.36C21.04 8.24 11.68 7.92 6 9.6c-.72.24-1.2 1.04-.96 1.84.24.72 1.04 1.2 1.84.96 4.88-1.52 13.44-1.2 18.56 1.84.72.4 1.68.16 2.08-.4.4-.72.16-1.68-.56-2.08z"/>
</svg>
