<svg id="visual" viewBox="0 0 960 540" width="960" height="540" xmlns="http://www.w3.org/2000/svg" xmlns:xlink="http://www.w3.org/1999/xlink" version="1.1"><path d="M0 0L26.7 2.8C53.3 5.7 106.7 11.3 160 18.7C213.3 26 266.7 35 320 36C373.3 37 426.7 30 480 29.2C533.3 28.3 586.7 33.7 640 30.8C693.3 28 746.7 17 800 10.5C853.3 4 906.7 2 933.3 1L960 0L960 0L933.3 0C906.7 0 853.3 0 800 0C746.7 0 693.3 0 640 0C586.7 0 533.3 0 480 0C426.7 0 373.3 0 320 0C266.7 0 213.3 0 160 0C106.7 0 53.3 0 26.7 0L0 0Z" fill="#5b88dc"></path><path d="M0 82L26.7 78.3C53.3 74.7 106.7 67.3 160 62C213.3 56.7 266.7 53.3 320 59.7C373.3 66 426.7 82 480 86.5C533.3 91 586.7 84 640 74.2C693.3 64.3 746.7 51.7 800 52.5C853.3 53.3 906.7 67.7 933.3 74.8L960 82L960 0L933.3 0.7C906.7 1.3 853.3 2.7 800 8.8C746.7 15 693.3 26 640 28.8C586.7 31.7 533.3 26.3 480 27.2C426.7 28 373.3 35 320 34C266.7 33 213.3 24 160 17C106.7 10 53.3 5 26.7 2.5L0 0Z" fill="#5180d9"></path><path d="M0 87L26.7 83.5C53.3 80 106.7 73 160 74.8C213.3 76.7 266.7 87.3 320 92.7C373.3 98 426.7 98 480 99C533.3 100 586.7 102 640 97.5C693.3 93 746.7 82 800 88.2C853.3 94.3 906.7 117.7 933.3 129.3L960 141L960 80L933.3 72.8C906.7 65.7 853.3 51.3 800 50.5C746.7 49.7 693.3 62.3 640 72.2C586.7 82 533.3 89 480 84.5C426.7 80 373.3 64 320 57.7C266.7 51.3 213.3 54.7 160 60C106.7 65.3 53.3 72.7 26.7 76.3L0 80Z" fill="#4679d5"></path><path d="M0 98L26.7 106.2C53.3 114.3 106.7 130.7 160 131.7C213.3 132.7 266.7 118.3 320 114.7C373.3 111 426.7 118 480 127C533.3 136 586.7 147 640 141.7C693.3 136.3 746.7 114.7 800 120.8C853.3 127 906.7 161 933.3 178L960 195L960 139L933.3 127.3C906.7 115.7 853.3 92.3 800 86.2C746.7 80 693.3 91 640 95.5C586.7 100 533.3 98 480 97C426.7 96 373.3 96 320 90.7C266.7 85.3 213.3 74.7 160 72.8C106.7 71 53.3 78 26.7 81.5L0 85Z" fill="#3b71d2"></path><path d="M0 141L26.7 145.5C53.3 150 106.7 159 160 160.8C213.3 162.7 266.7 157.3 320 150.2C373.3 143 426.7 134 480 140.3C533.3 146.7 586.7 168.3 640 172C693.3 175.7 746.7 161.3 800 165C853.3 168.7 906.7 190.3 933.3 201.2L960 212L960 193L933.3 176C906.7 159 853.3 125 800 118.8C746.7 112.7 693.3 134.3 640 139.7C586.7 145 533.3 134 480 125C426.7 116 373.3 109 320 112.7C266.7 116.3 213.3 130.7 160 129.7C106.7 128.7 53.3 112.3 26.7 104.2L0 96Z" fill="#2f69cf"></path><path d="M0 195L26.7 196C53.3 197 106.7 199 160 192.8C213.3 186.7 266.7 172.3 320 165.2C373.3 158 426.7 158 480 165.2C533.3 172.3 586.7 186.7 640 188.3C693.3 190 746.7 179 800 186.2C853.3 193.3 906.7 218.7 933.3 231.3L960 244L960 210L933.3 199.2C906.7 188.3 853.3 166.7 800 163C746.7 159.3 693.3 173.7 640 170C586.7 166.3 533.3 144.7 480 138.3C426.7 132 373.3 141 320 148.2C266.7 155.3 213.3 160.7 160 158.8C106.7 157 53.3 148 26.7 143.5L0 139Z" fill="#2062cb"></path><path d="M0 228L26.7 223.5C53.3 219 106.7 210 160 201C213.3 192 266.7 183 320 176.7C373.3 170.3 426.7 166.7 480 177.5C533.3 188.3 586.7 213.7 640 216.3C693.3 219 746.7 199 800 207C853.3 215 906.7 251 933.3 269L960 287L960 242L933.3 229.3C906.7 216.7 853.3 191.3 800 184.2C746.7 177 693.3 188 640 186.3C586.7 184.7 533.3 170.3 480 163.2C426.7 156 373.3 156 320 163.2C266.7 170.3 213.3 184.7 160 190.8C106.7 197 53.3 195 26.7 194L0 193Z" fill="#145cc4"></path><path d="M0 228L26.7 224.3C53.3 220.7 106.7 213.3 160 210.7C213.3 208 266.7 210 320 203.7C373.3 197.3 426.7 182.7 480 190.7C533.3 198.7 586.7 229.3 640 236.7C693.3 244 746.7 228 800 238.8C853.3 249.7 906.7 287.3 933.3 306.2L960 325L960 285L933.3 267C906.7 249 853.3 213 800 205C746.7 197 693.3 217 640 214.3C586.7 211.7 533.3 186.3 480 175.5C426.7 164.7 373.3 168.3 320 174.7C266.7 181 213.3 190 160 199C106.7 208 53.3 217 26.7 221.5L0 226Z" fill="#1157ba"></path><path d="M0 255L26.7 247.8C53.3 240.7 106.7 226.3 160 226.3C213.3 226.3 266.7 240.7 320 236.2C373.3 231.7 426.7 208.3 480 210.2C533.3 212 586.7 239 640 250.7C693.3 262.3 746.7 258.7 800 271.2C853.3 283.7 906.7 312.3 933.3 326.7L960 341L960 323L933.3 304.2C906.7 285.3 853.3 247.7 800 236.8C746.7 226 693.3 242 640 234.7C586.7 227.3 533.3 196.7 480 188.7C426.7 180.7 373.3 195.3 320 201.7C266.7 208 213.3 206 160 208.7C106.7 211.3 53.3 218.7 26.7 222.3L0 226Z" fill="#0e53b0"></path><path d="M0 266L26.7 274C53.3 282 106.7 298 160 301.5C213.3 305 266.7 296 320 292.5C373.3 289 426.7 291 480 301C533.3 311 586.7 329 640 335.2C693.3 341.3 746.7 335.7 800 346.3C853.3 357 906.7 384 933.3 397.5L960 411L960 339L933.3 324.7C906.7 310.3 853.3 281.7 800 269.2C746.7 256.7 693.3 260.3 640 248.7C586.7 237 533.3 210 480 208.2C426.7 206.3 373.3 229.7 320 234.2C266.7 238.7 213.3 224.3 160 224.3C106.7 224.3 53.3 238.7 26.7 245.8L0 253Z" fill="#0c4ea6"></path><path d="M0 428L26.7 412.7C53.3 397.3 106.7 366.7 160 375.7C213.3 384.7 266.7 433.3 320 438.7C373.3 444 426.7 406 480 404.2C533.3 402.3 586.7 436.7 640 436.7C693.3 436.7 746.7 402.3 800 405C853.3 407.7 906.7 447.3 933.3 467.2L960 487L960 409L933.3 395.5C906.7 382 853.3 355 800 344.3C746.7 333.7 693.3 339.3 640 333.2C586.7 327 533.3 309 480 299C426.7 289 373.3 287 320 290.5C266.7 294 213.3 303 160 299.5C106.7 296 53.3 280 26.7 272L0 264Z" fill="#0a499d"></path><path d="M0 541L26.7 541C53.3 541 106.7 541 160 541C213.3 541 266.7 541 320 541C373.3 541 426.7 541 480 541C533.3 541 586.7 541 640 541C693.3 541 746.7 541 800 541C853.3 541 906.7 541 933.3 541L960 541L960 485L933.3 465.2C906.7 445.3 853.3 405.7 800 403C746.7 400.3 693.3 434.7 640 434.7C586.7 434.7 533.3 400.3 480 402.2C426.7 404 373.3 442 320 436.7C266.7 431.3 213.3 382.7 160 373.7C106.7 364.7 53.3 395.3 26.7 410.7L0 426Z" fill="#084593"></path></svg>